<?xml version="1.0" standalone="yes"?>
<svg xmlns="http://www.w3.org/2000/svg" width="1600" height="1200">
<path style="fill:#ffffff; stroke:none;" d="M0 0L0 1200L1600 1200L1600 0L0 0z"/>
<path style="fill:#8f8f8f; stroke:none;" d="M769 256L770 257L769 256M830 256L831 257L830 256z"/>
<path style="fill:#5d5d5d; stroke:none;" d="M711 315C732.361 299.953 750.51 276.49 769 258L769 942C750.51 923.51 732.361 900.047 711 885L749 924L770 943L770 257L749 276L711 315M830 257L830 943L851 924L889 885C867.639 900.047 849.49 923.51 831 942L831 258C849.49 276.49 867.639 299.953 889 315L851 276L830 257z"/>
<path style="fill:#19191b; stroke:none;" d="M768 258L727 299L709.603 318L709 342L709 396L709 578L668 537C662.083 531.083 652.798 524.54 649.028 517C644.208 507.36 648 487.733 648 477L648 379C632.132 390.178 618.728 407.272 605 421C599.675 426.325 590.257 432.802 587.603 440C585.609 445.408 587 453.292 587 459L587 500C587 510.944 582.702 533.652 588.603 543C598.179 558.167 616.31 571.31 629 584C632.457 587.457 642.944 594.754 642.944 600C642.944 605.245 632.457 612.543 629 616C616.31 628.69 598.179 641.833 588.603 657C582.702 666.348 587 689.056 587 700L587 741C587 746.708 585.609 754.592 587.603 760C590.257 767.198 599.675 773.675 605 779C618.728 792.728 632.132 809.822 648 821L648 726C648 713.962 644.44 695.292 648.603 684C652.609 673.135 668.874 662.126 677 654C679.579 651.421 683.971 645.056 688 645.056C693.409 645.056 705.674 659.403 707.972 664C710.745 669.545 709 678.922 709 685L709 732L709 837C709 849.861 705.158 869.944 709.603 882C712.132 888.858 720.933 894.933 726 900C739.728 913.728 753.132 930.822 769 942L769 457L769 317L769 277L768 258M831 258L831 942C846.868 930.822 860.272 913.728 874 900C879.067 894.933 887.868 888.858 890.397 882C894.842 869.944 891 849.861 891 837L891 732L891 685C891 678.922 889.255 669.545 892.028 664C894.326 659.403 906.591 645.056 912 645.056C916.029 645.056 920.422 651.422 923 654C931.126 662.126 947.391 673.135 951.397 684C955.56 695.292 952 713.962 952 726L952 821C967.868 809.822 981.272 792.728 995 779C1000.32 773.675 1009.74 767.198 1012.4 760C1014.39 754.591 1013 746.708 1013 741L1013 700C1013 689.056 1017.3 666.348 1011.4 657C1001.82 641.833 983.69 628.69 971 616C967.543 612.543 957.056 605.246 957.056 600C957.056 594.754 967.543 587.457 971 584C983.69 571.31 1001.82 558.167 1011.4 543C1017.3 533.652 1013 510.944 1013 500L1013 459C1013 453.291 1014.39 445.409 1012.4 440C1009.74 432.802 1000.32 426.325 995 421C981.272 407.272 967.868 390.178 952 379L952 477C952 487.733 955.792 507.36 950.972 517C947.202 524.54 937.916 531.084 932 537L891 578L891 396L891 342L890.397 318L874 300L831 258z"/>
<path style="fill:#8f8f8f; stroke:none;" d="M710 315L711 316L710 315M889 315L890 316L889 315M709 316L710 317L709 316M890 316L891 317L890 316M708 317L708 577L709 577L709 394L709 341L708 317M891 317L891 577L892 577L892 394L892 341L891 317M647 378L648 379L647 378M952 378L953 379L952 378z"/>
<path style="fill:#5d5d5d; stroke:none;" d="M646 379L647 380L646 379M953 379L954 380L953 379M645 380L646 381L645 380M954 380L955 381L954 380M644 381L645 382L644 381M955 381L956 382L955 381M643 382L644 383L643 382M956 382L957 383L956 382M642 383L643 384L642 383M957 383L958 384L957 383M641 384L642 385L641 384M958 384L959 385L958 384M640 385L641 386L640 385M959 385L960 386L959 385M639 386L640 387L639 386M960 386L961 387L960 386M638 387L639 388L638 387M961 387L962 388L961 387M637 388L638 389L637 388M962 388L963 389L962 388M636 389L637 390L636 389M963 389L964 390L963 389M635 390L636 391L635 390M964 390L965 391L964 390M634 391L635 392L634 391M965 391L966 392L965 391M633 392L634 393L633 392M966 392L967 393L966 392M632 393L633 394L632 393M967 393L968 394L967 393M631 394L632 395L631 394M968 394L969 395L968 394M630 395L631 396L630 395M969 395L970 396L969 395M629 396L630 397L629 396M970 396L971 397L970 396M628 397L629 398L628 397M971 397L972 398L971 397M627 398L628 399L627 398M972 398L973 399L972 398M626 399L627 400L626 399M973 399L974 400L973 399M625 400L626 401L625 400M974 400L975 401L974 400M624 401L625 402L624 401M975 401L976 402L975 401M623 402L624 403L623 402M976 402L977 403L976 402M622 403L623 404L622 403M977 403L978 404L977 403M621 404L622 405L621 404M978 404L979 405L978 404M620 405L621 406L620 405M979 405L980 406L979 405M619 406L620 407L619 406M980 406L981 407L980 406M618 407L619 408L618 407M981 407L982 408L981 407M617 408L618 409L617 408M982 408L983 409L982 408M616 409L617 410L616 409M983 409L984 410L983 409M615 410L616 411L615 410M984 410L985 411L984 410M614 411L615 412L614 411M985 411L986 412L985 411M613 412L614 413L613 412M986 412L987 413L986 412M612 413L613 414L612 413M987 413L988 414L987 413M611 414L612 415L611 414M988 414L989 415L988 414M610 415L611 416L610 415M989 415L990 416L989 415M609 416L610 417L609 416M990 416L991 417L990 416M608 417L609 418L608 417M991 417L992 418L991 417M607 418L608 419L607 418M992 418L993 419L992 418M606 419L607 420L606 419M993 419L994 420L993 419M605 420L606 421L605 420M994 420L995 421L994 420M604 421L605 422L604 421M995 421L996 422L995 421M603 422L604 423L603 422M996 422L997 423L996 422M602 423L603 424L602 423M997 423L998 424L997 423M601 424L602 425L601 424M998 424L999 425L998 424M600 425L601 426L600 425M999 425L1000 426L999 425M599 426L600 427L599 426M1000 426L1001 427L1000 426M598 427L599 428L598 427M1001 427L1002 428L1001 427M597 428L598 429L597 428M1002 428L1003 429L1002 428M596 429L597 430L596 429M1003 429L1004 430L1003 429M595 430L596 431L595 430M1004 430L1005 431L1004 430M594 431L595 432L594 431M1005 431L1006 432L1005 431M593 432L594 433L593 432M1006 432L1007 433L1006 432M592 433L593 434L592 433M1007 433L1008 434L1007 433M591 434L592 435L591 434M1008 434L1009 435L1008 434M590 435L591 436L590 435M1009 435L1010 436L1009 435z"/>
<path style="fill:#8f8f8f; stroke:none;" d="M589 436L590 437L589 436M1010 436L1011 437L1010 436z"/>
<path style="fill:#5d5d5d; stroke:none;" d="M588 437L589 438L588 437M1011 437L1012 438L1011 437M587 438L588 439L587 438M1012 438L1013 439L1012 438z"/>
<path style="fill:#c6c6c6; stroke:none;" d="M586 439L586 542L587 542L587 470L586 439M1013 439L1013 542L1014 542L1014 470L1013 439M648 517L649 518L648 517M951 517L952 518L951 517M649 518L650 519L649 518M950 518L951 519L950 518M650 519L651 520L650 519M949 519L950 520L949 519M651 520L652 521L651 520M948 520L949 521L948 520M652 521L653 522L652 521M947 521L948 522L947 521M653 522L654 523L653 522M946 522L947 523L946 522M654 523L655 524L654 523M945 523L946 524L945 523M655 524L656 525L655 524M944 524L945 525L944 524M656 525L657 526L656 525M943 525L944 526L943 525M657 526L658 527L657 526M942 526L943 527L942 526M658 527L659 528L658 527M941 527L942 528L941 527M659 528L660 529L659 528M940 528L941 529L940 528M660 529L661 530L660 529M939 529L940 530L939 529M661 530L662 531L661 530M938 530L939 531L938 530M662 531L663 532L662 531M937 531L938 532L937 531M663 532L664 533L663 532M936 532L937 533L936 532M664 533L665 534L664 533M935 533L936 534L935 533M665 534L666 535L665 534M934 534L935 535L934 534M666 535L667 536L666 535M933 535L934 536L933 535M667 536L668 537L667 536M932 536L933 537L932 536M668 537L669 538L668 537M931 537L932 538L931 537M669 538L670 539L669 538M930 538L931 539L930 538M670 539L671 540L670 539M929 539L930 540L929 539M671 540L672 541L671 540M928 540L929 541L928 540M672 541L673 542L672 541M927 541L928 542L927 541z"/>
<path style="fill:#5d5d5d; stroke:none;" d="M587 542L588 543L587 542z"/>
<path style="fill:#c6c6c6; stroke:none;" d="M673 542L674 543L673 542M926 542L927 543L926 542z"/>
<path style="fill:#5d5d5d; stroke:none;" d="M1012 542L1013 543L1012 542M588 543L589 544L588 543z"/>
<path style="fill:#c6c6c6; stroke:none;" d="M674 543L675 544L674 543M925 543L926 544L925 543z"/>
<path style="fill:#5d5d5d; stroke:none;" d="M1011 543L1012 544L1011 543z"/>
<path style="fill:#8f8f8f; stroke:none;" d="M589 544L590 545L589 544z"/>
<path style="fill:#c6c6c6; stroke:none;" d="M675 544L676 545L675 544M924 544L925 545L924 544z"/>
<path style="fill:#8f8f8f; stroke:none;" d="M1010 544L1011 545L1010 544M590 545L591 546L590 545z"/>
<path style="fill:#c6c6c6; stroke:none;" d="M676 545L677 546L676 545M923 545L924 546L923 545z"/>
<path style="fill:#8f8f8f; stroke:none;" d="M1009 545L1010 546L1009 545M591 546L592 547L591 546z"/>
<path style="fill:#c6c6c6; stroke:none;" d="M677 546L678 547L677 546M922 546L923 547L922 546z"/>
<path style="fill:#8f8f8f; stroke:none;" d="M1008 546L1009 547L1008 546z"/>
<path style="fill:#5d5d5d; stroke:none;" d="M592 547L593 548L592 547z"/>
<path style="fill:#c6c6c6; stroke:none;" d="M678 547L679 548L678 547M921 547L922 548L921 547z"/>
<path style="fill:#5d5d5d; stroke:none;" d="M1007 547L1008 548L1007 547M593 548L594 549L593 548z"/>
<path style="fill:#c6c6c6; stroke:none;" d="M679 548L680 549L679 548M920 548L921 549L920 548z"/>
<path style="fill:#5d5d5d; stroke:none;" d="M1006 548L1007 549L1006 548M594 549L595 550L594 549z"/>
<path style="fill:#c6c6c6; stroke:none;" d="M680 549L681 550L680 549M919 549L920 550L919 549z"/>
<path style="fill:#5d5d5d; stroke:none;" d="M1005 549L1006 550L1005 549M595 550L596 551L595 550z"/>
<path style="fill:#c6c6c6; stroke:none;" d="M681 550L682 551L681 550M918 550L919 551L918 550z"/>
<path style="fill:#5d5d5d; stroke:none;" d="M1004 550L1005 551L1004 550M596 551L597 552L596 551z"/>
<path style="fill:#c6c6c6; stroke:none;" d="M682 551L683 552L682 551M917 551L918 552L917 551z"/>
<path style="fill:#5d5d5d; stroke:none;" d="M1003 551L1004 552L1003 551z"/>
<path style="fill:#8f8f8f; stroke:none;" d="M597 552L598 553L597 552z"/>
<path style="fill:#c6c6c6; stroke:none;" d="M683 552L684 553L683 552M916 552L917 553L916 552z"/>
<path style="fill:#8f8f8f; stroke:none;" d="M1002 552L1003 553L1002 552M598 553L599 554L598 553z"/>
<path style="fill:#c6c6c6; stroke:none;" d="M684 553L685 554L684 553M915 553L916 554L915 553z"/>
<path style="fill:#8f8f8f; stroke:none;" d="M1001 553L1002 554L1001 553M599 554L600 555L599 554z"/>
<path style="fill:#c6c6c6; stroke:none;" d="M685 554L686 555L685 554M914 554L915 555L914 554z"/>
<path style="fill:#8f8f8f; stroke:none;" d="M1000 554L1001 555L1000 554z"/>
<path style="fill:#5d5d5d; stroke:none;" d="M600 555L601 556L600 555z"/>
<path style="fill:#c6c6c6; stroke:none;" d="M686 555L687 556L686 555M913 555L914 556L913 555z"/>
<path style="fill:#5d5d5d; stroke:none;" d="M999 555L1000 556L999 555M601 556L602 557L601 556z"/>
<path style="fill:#c6c6c6; stroke:none;" d="M687 556L688 557L687 556M912 556L913 557L912 556z"/>
<path style="fill:#5d5d5d; stroke:none;" d="M998 556L999 557L998 556M602 557L603 558L602 557z"/>
<path style="fill:#c6c6c6; stroke:none;" d="M688 557L689 558L688 557M911 557L912 558L911 557z"/>
<path style="fill:#5d5d5d; stroke:none;" d="M997 557L998 558L997 557M603 558L604 559L603 558z"/>
<path style="fill:#c6c6c6; stroke:none;" d="M689 558L690 559L689 558M910 558L911 559L910 558z"/>
<path style="fill:#5d5d5d; stroke:none;" d="M996 558L997 559L996 558M604 559L605 560L604 559z"/>
<path style="fill:#c6c6c6; stroke:none;" d="M690 559L691 560L690 559M909 559L910 560L909 559z"/>
<path style="fill:#5d5d5d; stroke:none;" d="M995 559L996 560L995 559z"/>
<path style="fill:#8f8f8f; stroke:none;" d="M605 560L606 561L605 560z"/>
<path style="fill:#c6c6c6; stroke:none;" d="M691 560L692 561L691 560M908 560L909 561L908 560z"/>
<path style="fill:#8f8f8f; stroke:none;" d="M994 560L995 561L994 560M606 561L607 562L606 561z"/>
<path style="fill:#c6c6c6; stroke:none;" d="M692 561L693 562L692 561M907 561L908 562L907 561z"/>
<path style="fill:#8f8f8f; stroke:none;" d="M993 561L994 562L993 561M607 562L608 563L607 562z"/>
<path style="fill:#c6c6c6; stroke:none;" d="M693 562L694 563L693 562M906 562L907 563L906 562z"/>
<path style="fill:#8f8f8f; stroke:none;" d="M992 562L993 563L992 562z"/>
<path style="fill:#5d5d5d; stroke:none;" d="M608 563L609 564L608 563z"/>
<path style="fill:#c6c6c6; stroke:none;" d="M694 563L695 564L694 563M905 563L906 564L905 563z"/>
<path style="fill:#5d5d5d; stroke:none;" d="M991 563L992 564L991 563M609 564L610 565L609 564z"/>
<path style="fill:#c6c6c6; stroke:none;" d="M695 564L696 565L695 564M904 564L905 565L904 564z"/>
<path style="fill:#5d5d5d; stroke:none;" d="M990 564L991 565L990 564M610 565L611 566L610 565z"/>
<path style="fill:#c6c6c6; stroke:none;" d="M696 565L697 566L696 565M903 565L904 566L903 565z"/>
<path style="fill:#5d5d5d; stroke:none;" d="M989 565L990 566L989 565M611 566L612 567L611 566z"/>
<path style="fill:#c6c6c6; stroke:none;" d="M697 566L698 567L697 566M902 566L903 567L902 566z"/>
<path style="fill:#5d5d5d; stroke:none;" d="M988 566L989 567L988 566M612 567L613 568L612 567z"/>
<path style="fill:#c6c6c6; stroke:none;" d="M698 567L699 568L698 567M901 567L902 568L901 567z"/>
<path style="fill:#5d5d5d; stroke:none;" d="M987 567L988 568L987 567z"/>
<path style="fill:#8f8f8f; stroke:none;" d="M613 568L614 569L613 568z"/>
<path style="fill:#c6c6c6; stroke:none;" d="M699 568L700 569L699 568M900 568L901 569L900 568z"/>
<path style="fill:#8f8f8f; stroke:none;" d="M986 568L987 569L986 568M614 569L615 570L614 569z"/>
<path style="fill:#c6c6c6; stroke:none;" d="M700 569L701 570L700 569M899 569L900 570L899 569z"/>
<path style="fill:#8f8f8f; stroke:none;" d="M985 569L986 570L985 569M615 570L616 571L615 570z"/>
<path style="fill:#c6c6c6; stroke:none;" d="M701 570L702 571L701 570M898 570L899 571L898 570z"/>
<path style="fill:#8f8f8f; stroke:none;" d="M984 570L985 571L984 570z"/>
<path style="fill:#5d5d5d; stroke:none;" d="M616 571L617 572L616 571z"/>
<path style="fill:#c6c6c6; stroke:none;" d="M702 571L703 572L702 571M897 571L898 572L897 571z"/>
<path style="fill:#5d5d5d; stroke:none;" d="M983 571L984 572L983 571M617 572L618 573L617 572z"/>
<path style="fill:#c6c6c6; stroke:none;" d="M703 572L704 573L703 572M896 572L897 573L896 572z"/>
<path style="fill:#5d5d5d; stroke:none;" d="M982 572L983 573L982 572M618 573L619 574L618 573z"/>
<path style="fill:#c6c6c6; stroke:none;" d="M704 573L705 574L704 573M895 573L896 574L895 573z"/>
<path style="fill:#5d5d5d; stroke:none;" d="M981 573L982 574L981 573M619 574L620 575L619 574z"/>
<path style="fill:#c6c6c6; stroke:none;" d="M705 574L706 575L705 574M894 574L895 575L894 574z"/>
<path style="fill:#5d5d5d; stroke:none;" d="M980 574L981 575L980 574M620 575L621 576L620 575z"/>
<path style="fill:#c6c6c6; stroke:none;" d="M706 575L707 576L706 575M893 575L894 576L893 575z"/>
<path style="fill:#5d5d5d; stroke:none;" d="M979 575L980 576L979 575z"/>
<path style="fill:#8f8f8f; stroke:none;" d="M621 576L622 577L621 576z"/>
<path style="fill:#c6c6c6; stroke:none;" d="M707 576L708 577L707 576M892 576L893 577L892 576z"/>
<path style="fill:#8f8f8f; stroke:none;" d="M978 576L979 577L978 576M622 577L623 578L622 577z"/>
<path style="fill:#5d5d5d; stroke:none;" d="M708 577L709 578L708 577M891 577L892 578L891 577z"/>
<path style="fill:#8f8f8f; stroke:none;" d="M977 577L978 578L977 577M623 578L624 579L623 578M976 578L977 579L976 578z"/>
<path style="fill:#5d5d5d; stroke:none;" d="M624 579L625 580L624 579M975 579L976 580L975 579M625 580L626 581L625 580M974 580L975 581L974 580M626 581L627 582L626 581M973 581L974 582L973 581M627 582L628 583L627 582M972 582L973 583L972 582M628 583L629 584L628 583M971 583L972 584L971 583z"/>
<path style="fill:#8f8f8f; stroke:none;" d="M629 584L630 585L629 584M970 584L971 585L970 584M630 585L631 586L630 585M969 585L970 586L969 585M631 586L632 587L631 586M968 586L969 587L968 586z"/>
<path style="fill:#5d5d5d; stroke:none;" d="M632 587L633 588L632 587M967 587L968 588L967 587M633 588L634 589L633 588M966 588L967 589L966 588M634 589L635 590L634 589M965 589L966 590L965 589M635 590L636 591L635 590M964 590L965 591L964 590M636 591L637 592L636 591M963 591L964 592L963 591z"/>
<path style="fill:#8f8f8f; stroke:none;" d="M637 592L638 593L637 592M962 592L963 593L962 592M638 593L639 594L638 593M961 593L962 594L961 593M639 594L640 595L639 594M960 594L961 595L960 594z"/>
<path style="fill:#5d5d5d; stroke:none;" d="M640 595L641 596L640 595M959 595L960 596L959 595M641 596L642 597L641 596M958 596L959 597L958 596M642 597L643 598L642 597M957 597L958 598L957 597M643 598L644 599L643 598M956 598L957 599L956 598M644 599L645 600L644 599M955 599L956 600L955 599z"/>
<path style="fill:#8f8f8f; stroke:none;" d="M644 600L645 601L644 600M955 600L956 601L955 600M643 601L644 602L643 601M956 601L957 602L956 601M642 602L643 603L642 602M957 602L958 603L957 602M641 603L642 604L641 603M958 603L959 604L958 603M640 604L641 605L640 604M959 604L960 605L959 604M639 605L640 606L639 605M960 605L961 606L960 605M638 606L639 607L638 606M961 606L962 607L961 606M637 607L638 608L637 607M962 607L963 608L962 607M636 608L637 609L636 608M963 608L964 609L963 608M635 609L636 610L635 609M964 609L965 610L964 609M634 610L635 611L634 610M965 610L966 611L965 610M633 611L634 612L633 611M966 611L967 612L966 611M632 612L633 613L632 612M967 612L968 613L967 612M631 613L632 614L631 613M968 613L969 614L968 613M630 614L631 615L630 614M969 614L970 615L969 614M629 615L630 616L629 615M970 615L971 616L970 615M628 616L629 617L628 616M971 616L972 617L971 616M627 617L628 618L627 617M972 617L973 618L972 617M626 618L627 619L626 618M973 618L974 619L973 618M625 619L626 620L625 619M974 619L975 620L974 619M624 620L625 621L624 620M975 620L976 621L975 620M623 621L624 622L623 621M976 621L977 622L976 621M622 622L623 623L622 622M977 622L978 623L977 622M621 623L622 624L621 623M978 623L979 624L978 623M620 624L621 625L620 624M979 624L980 625L979 624M619 625L620 626L619 625M980 625L981 626L980 625M618 626L619 627L618 626M981 626L982 627L981 626M617 627L618 628L617 627M982 627L983 628L982 627M616 628L617 629L616 628M983 628L984 629L983 628M615 629L616 630L615 629M984 629L985 630L984 629M614 630L615 631L614 630M985 630L986 631L985 630M613 631L614 632L613 631M986 631L987 632L986 631M612 632L613 633L612 632M987 632L988 633L987 632M611 633L612 634L611 633M988 633L989 634L988 633M610 634L611 635L610 634M989 634L990 635L989 634M609 635L610 636L609 635M990 635L991 636L990 635M608 636L609 637L608 636M991 636L992 637L991 636M607 637L608 638L607 637M992 637L993 638L992 637M606 638L607 639L606 638M993 638L994 639L993 638M605 639L606 640L605 639M994 639L995 640L994 639M604 640L605 641L604 640M995 640L996 641L995 640M603 641L604 642L603 641M996 641L997 642L996 641M602 642L603 643L602 642M997 642L998 643L997 642M601 643L602 644L601 643z"/>
<path style="fill:#c6c6c6; stroke:none;" d="M687 643L688 644L687 643z"/>
<path style="fill:#5d5d5d; stroke:none;" d="M688 643L689 644L688 643M911 643L912 644L911 643z"/>
<path style="fill:#c6c6c6; stroke:none;" d="M912 643L913 644L912 643z"/>
<path style="fill:#8f8f8f; stroke:none;" d="M998 643L999 644L998 643M600 644L601 645L600 644z"/>
<path style="fill:#c6c6c6; stroke:none;" d="M686 644L687 645L686 644z"/>
<path style="fill:#5d5d5d; stroke:none;" d="M689 644L690 645L689 644M910 644L911 645L910 644z"/>
<path style="fill:#c6c6c6; stroke:none;" d="M913 644L914 645L913 644z"/>
<path style="fill:#5d5d5d; stroke:none;" d="M999 644L1000 645L999 644z"/>
<path style="fill:#8f8f8f; stroke:none;" d="M599 645L600 646L599 645z"/>
<path style="fill:#c6c6c6; stroke:none;" d="M685 645L686 646L685 645z"/>
<path style="fill:#5d5d5d; stroke:none;" d="M690 645L691 646L690 645M909 645L910 646L909 645z"/>
<path style="fill:#c6c6c6; stroke:none;" d="M914 645L915 646L914 645z"/>
<path style="fill:#8f8f8f; stroke:none;" d="M1000 645L1001 646L1000 645M598 646L599 647L598 646z"/>
<path style="fill:#c6c6c6; stroke:none;" d="M684 646L685 647L684 646z"/>
<path style="fill:#5d5d5d; stroke:none;" d="M691 646L692 647L691 646M908 646L909 647L908 646z"/>
<path style="fill:#c6c6c6; stroke:none;" d="M915 646L916 647L915 646z"/>
<path style="fill:#8f8f8f; stroke:none;" d="M1001 646L1002 647L1001 646M597 647L598 648L597 647z"/>
<path style="fill:#c6c6c6; stroke:none;" d="M683 647L684 648L683 647z"/>
<path style="fill:#5d5d5d; stroke:none;" d="M692 647L693 648L692 647M907 647L908 648L907 647z"/>
<path style="fill:#c6c6c6; stroke:none;" d="M916 647L917 648L916 647z"/>
<path style="fill:#8f8f8f; stroke:none;" d="M1002 647L1003 648L1002 647z"/>
<path style="fill:#5d5d5d; stroke:none;" d="M596 648L597 649L596 648z"/>
<path style="fill:#c6c6c6; stroke:none;" d="M682 648L683 649L682 648z"/>
<path style="fill:#8f8f8f; stroke:none;" d="M693 648L694 649L693 648M906 648L907 649L906 648z"/>
<path style="fill:#c6c6c6; stroke:none;" d="M917 648L918 649L917 648z"/>
<path style="fill:#5d5d5d; stroke:none;" d="M1003 648L1004 649L1003 648M595 649L596 650L595 649z"/>
<path style="fill:#c6c6c6; stroke:none;" d="M681 649L682 650L681 649z"/>
<path style="fill:#8f8f8f; stroke:none;" d="M694 649L695 650L694 649M905 649L906 650L905 649z"/>
<path style="fill:#c6c6c6; stroke:none;" d="M918 649L919 650L918 649z"/>
<path style="fill:#5d5d5d; stroke:none;" d="M1004 649L1005 650L1004 649M594 650L595 651L594 650z"/>
<path style="fill:#c6c6c6; stroke:none;" d="M680 650L681 651L680 650z"/>
<path style="fill:#8f8f8f; stroke:none;" d="M695 650L696 651L695 650M904 650L905 651L904 650z"/>
<path style="fill:#c6c6c6; stroke:none;" d="M919 650L920 651L919 650z"/>
<path style="fill:#5d5d5d; stroke:none;" d="M1005 650L1006 651L1005 650M593 651L594 652L593 651z"/>
<path style="fill:#c6c6c6; stroke:none;" d="M679 651L680 652L679 651z"/>
<path style="fill:#5d5d5d; stroke:none;" d="M696 651L697 652L696 651M903 651L904 652L903 651z"/>
<path style="fill:#c6c6c6; stroke:none;" d="M920 651L921 652L920 651z"/>
<path style="fill:#5d5d5d; stroke:none;" d="M1006 651L1007 652L1006 651M592 652L593 653L592 652z"/>
<path style="fill:#c6c6c6; stroke:none;" d="M678 652L679 653L678 652z"/>
<path style="fill:#5d5d5d; stroke:none;" d="M697 652L698 653L697 652M902 652L903 653L902 652z"/>
<path style="fill:#c6c6c6; stroke:none;" d="M921 652L922 653L921 652z"/>
<path style="fill:#5d5d5d; stroke:none;" d="M1007 652L1008 653L1007 652z"/>
<path style="fill:#8f8f8f; stroke:none;" d="M591 653L592 654L591 653z"/>
<path style="fill:#c6c6c6; stroke:none;" d="M677 653L678 654L677 653z"/>
<path style="fill:#5d5d5d; stroke:none;" d="M698 653L699 654L698 653M901 653L902 654L901 653z"/>
<path style="fill:#c6c6c6; stroke:none;" d="M922 653L923 654L922 653z"/>
<path style="fill:#8f8f8f; stroke:none;" d="M1008 653L1009 654L1008 653M590 654L591 655L590 654z"/>
<path style="fill:#c6c6c6; stroke:none;" d="M676 654L677 655L676 654z"/>
<path style="fill:#5d5d5d; stroke:none;" d="M699 654L700 655L699 654M900 654L901 655L900 654z"/>
<path style="fill:#c6c6c6; stroke:none;" d="M923 654L924 655L923 654z"/>
<path style="fill:#8f8f8f; stroke:none;" d="M1009 654L1010 655L1009 654M589 655L590 656L589 655z"/>
<path style="fill:#c6c6c6; stroke:none;" d="M675 655L676 656L675 655z"/>
<path style="fill:#5d5d5d; stroke:none;" d="M700 655L701 656L700 655M899 655L900 656L899 655z"/>
<path style="fill:#c6c6c6; stroke:none;" d="M924 655L925 656L924 655z"/>
<path style="fill:#8f8f8f; stroke:none;" d="M1010 655L1011 656L1010 655z"/>
<path style="fill:#5d5d5d; stroke:none;" d="M588 656L589 657L588 656z"/>
<path style="fill:#c6c6c6; stroke:none;" d="M674 656L675 657L674 656z"/>
<path style="fill:#8f8f8f; stroke:none;" d="M701 656L702 657L701 656M898 656L899 657L898 656z"/>
<path style="fill:#c6c6c6; stroke:none;" d="M925 656L926 657L925 656z"/>
<path style="fill:#5d5d5d; stroke:none;" d="M1011 656L1012 657L1011 656M587 657L588 658L587 657z"/>
<path style="fill:#c6c6c6; stroke:none;" d="M673 657L674 658L673 657z"/>
<path style="fill:#8f8f8f; stroke:none;" d="M702 657L703 658L702 657M897 657L898 658L897 657z"/>
<path style="fill:#c6c6c6; stroke:none;" d="M926 657L927 658L926 657z"/>
<path style="fill:#5d5d5d; stroke:none;" d="M1012 657L1013 658L1012 657z"/>
<path style="fill:#c6c6c6; stroke:none;" d="M586 658L586 761L587 761L587 689L586 658M672 658L673 659L672 658z"/>
<path style="fill:#8f8f8f; stroke:none;" d="M703 658L704 659L703 658M896 658L897 659L896 658z"/>
<path style="fill:#c6c6c6; stroke:none;" d="M927 658L928 659L927 658M1013 658L1013 761L1014 761L1014 689L1013 658M671 659L672 660L671 659z"/>
<path style="fill:#8f8f8f; stroke:none;" d="M704 659L705 660L704 659M895 659L896 660L895 659z"/>
<path style="fill:#c6c6c6; stroke:none;" d="M928 659L929 660L928 659M670 660L671 661L670 660z"/>
<path style="fill:#5d5d5d; stroke:none;" d="M705 660L706 661L705 660M894 660L895 661L894 660z"/>
<path style="fill:#c6c6c6; stroke:none;" d="M929 660L930 661L929 660M669 661L670 662L669 661z"/>
<path style="fill:#5d5d5d; stroke:none;" d="M706 661L707 662L706 661M893 661L894 662L893 661z"/>
<path style="fill:#c6c6c6; stroke:none;" d="M930 661L931 662L930 661M668 662L669 663L668 662z"/>
<path style="fill:#8f8f8f; stroke:none;" d="M707 662L708 663L707 662M892 662L893 663L892 662z"/>
<path style="fill:#c6c6c6; stroke:none;" d="M931 662L932 663L931 662M667 663L668 664L667 663z"/>
<path style="fill:#5d5d5d; stroke:none;" d="M708 663L709 664L708 663M891 663L892 664L891 663z"/>
<path style="fill:#c6c6c6; stroke:none;" d="M932 663L933 664L932 663M666 664L667 665L666 664z"/>
<path style="fill:#8f8f8f; stroke:none;" d="M708 664L708 883L709 883L709 729L709 685L708 664M891 664L891 883L892 883L892 729L892 685L891 664z"/>
<path style="fill:#c6c6c6; stroke:none;" d="M933 664L934 665L933 664M665 665L666 666L665 665M934 665L935 666L934 665M664 666L665 667L664 666M935 666L936 667L935 666M663 667L664 668L663 667M936 667L937 668L936 667M662 668L663 669L662 668M937 668L938 669L937 668M661 669L662 670L661 669M938 669L939 670L938 669M660 670L661 671L660 670M939 670L940 671L939 670M659 671L660 672L659 671M940 671L941 672L940 671M658 672L659 673L658 672M941 672L942 673L941 672M657 673L658 674L657 673M942 673L943 674L942 673M656 674L657 675L656 674M943 674L944 675L943 674M655 675L656 676L655 675M944 675L945 676L944 675M654 676L655 677L654 676M945 676L946 677L945 676M653 677L654 678L653 677M946 677L947 678L946 677M652 678L653 679L652 678M947 678L948 679L947 678M651 679L652 680L651 679M948 679L949 680L948 679M650 680L651 681L650 680M949 680L950 681L949 680M649 681L650 682L649 681M950 681L951 682L950 681M648 682L649 683L648 682M951 682L952 683L951 682z"/>
<path style="fill:#5d5d5d; stroke:none;" d="M587 761L588 762L587 761M1012 761L1013 762L1012 761M588 762L589 763L588 762M1011 762L1012 763L1011 762z"/>
<path style="fill:#8f8f8f; stroke:none;" d="M589 763L590 764L589 763M1010 763L1011 764L1010 763z"/>
<path style="fill:#5d5d5d; stroke:none;" d="M590 764L591 765L590 764M1009 764L1010 765L1009 764M591 765L592 766L591 765M1008 765L1009 766L1008 765M592 766L593 767L592 766M1007 766L1008 767L1007 766M593 767L594 768L593 767M1006 767L1007 768L1006 767M594 768L595 769L594 768M1005 768L1006 769L1005 768M595 769L596 770L595 769M1004 769L1005 770L1004 769M596 770L597 771L596 770M1003 770L1004 771L1003 770M597 771L598 772L597 771M1002 771L1003 772L1002 771M598 772L599 773L598 772M1001 772L1002 773L1001 772M599 773L600 774L599 773M1000 773L1001 774L1000 773M600 774L601 775L600 774M999 774L1000 775L999 774M601 775L602 776L601 775M998 775L999 776L998 775M602 776L603 777L602 776M997 776L998 777L997 776M603 777L604 778L603 777M996 777L997 778L996 777M604 778L605 779L604 778M995 778L996 779L995 778M605 779L606 780L605 779M994 779L995 780L994 779M606 780L607 781L606 780M993 780L994 781L993 780M607 781L608 782L607 781M992 781L993 782L992 781M608 782L609 783L608 782M991 782L992 783L991 782M609 783L610 784L609 783M990 783L991 784L990 783M610 784L611 785L610 784M989 784L990 785L989 784M611 785L612 786L611 785M988 785L989 786L988 785M612 786L613 787L612 786M987 786L988 787L987 786M613 787L614 788L613 787M986 787L987 788L986 787M614 788L615 789L614 788M985 788L986 789L985 788M615 789L616 790L615 789M984 789L985 790L984 789M616 790L617 791L616 790M983 790L984 791L983 790M617 791L618 792L617 791M982 791L983 792L982 791M618 792L619 793L618 792M981 792L982 793L981 792M619 793L620 794L619 793M980 793L981 794L980 793M620 794L621 795L620 794M979 794L980 795L979 794M621 795L622 796L621 795M978 795L979 796L978 795M622 796L623 797L622 796M977 796L978 797L977 796M623 797L624 798L623 797M976 797L977 798L976 797M624 798L625 799L624 798M975 798L976 799L975 798M625 799L626 800L625 799M974 799L975 800L974 799M626 800L627 801L626 800M973 800L974 801L973 800M627 801L628 802L627 801M972 801L973 802L972 801M628 802L629 803L628 802M971 802L972 803L971 802M629 803L630 804L629 803M970 803L971 804L970 803M630 804L631 805L630 804M969 804L970 805L969 804M631 805L632 806L631 805M968 805L969 806L968 805M632 806L633 807L632 806M967 806L968 807L967 806M633 807L634 808L633 807M966 807L967 808L966 807M634 808L635 809L634 808M965 808L966 809L965 808M635 809L636 810L635 809M964 809L965 810L964 809M636 810L637 811L636 810M963 810L964 811L963 810M637 811L638 812L637 811M962 811L963 812L962 811M638 812L639 813L638 812M961 812L962 813L961 812M639 813L640 814L639 813M960 813L961 814L960 813M640 814L641 815L640 814M959 814L960 815L959 814M641 815L642 816L641 815M958 815L959 816L958 815M642 816L643 817L642 816M957 816L958 817L957 816M643 817L644 818L643 817M956 817L957 818L956 817M644 818L645 819L644 818M955 818L956 819L955 818M645 819L646 820L645 819M954 819L955 820L954 819M646 820L647 821L646 820M953 820L954 821L953 820z"/>
<path style="fill:#8f8f8f; stroke:none;" d="M647 821L648 822L647 821M952 821L953 822L952 821M709 883L710 884L709 883M890 883L891 884L890 883M710 884L711 885L710 884M889 884L890 885L889 884M769 943L770 944L769 943M830 943L831 944L830 943z"/>
</svg>
